<?xml version="1.0" encoding="utf-8"?>
<!-- Generator: Adobe Illustrator 26.0.2, SVG Export Plug-In . SVG Version: 6.00 Build 0)  -->
<svg version="1.1" id="error" xmlns="http://www.w3.org/2000/svg" xmlns:xlink="http://www.w3.org/1999/xlink" x="0px" y="0px"
	 viewBox="0 0 400 400" style="enable-background:new 0 0 400 400;" xml:space="preserve">
<style type="text/css">
	.st0{fill:#F6F5F4;}
	.st1{fill:#C0C0C0;}
	.st2{fill:#333333;}
	.st3{fill:#F6AF74;stroke:#F6B075;stroke-width:2;stroke-miterlimit:10;}
	.st4{fill:#EEA36C;}
	.st5{fill:#BA5B3C;}
	.st6{fill:#F6AF74;}
	.st7{display:none;fill:#BA5B3C;}
	.st8{fill:none;}
	.st9{fill:#FFFFFF;}
	.st10{font-family:'MVBoli';}
	.st11{font-size:46.0839px;}
</style>
<g id="svg-mask">
	<path class="st0" d="M6.8,4.8v325.3h51c15.4,15.6,69.3,27,133.5,27s118.2-11.5,133.5-27h67.9V4.8H6.8z"/>
</g>
<g id="svg-hole">
	<g>
		<path class="st1" d="M324.9,330.1c2.9-2.9,4.4-5.9,4.4-9.1c0-19.9-61.7-36.1-137.9-36.1s-138,16.2-138,36.1c0,3.1,1.5,6.2,4.4,9.1
			c15.4-15.6,69.3-27,133.5-27S309.5,314.5,324.9,330.1z"/>
		<path class="st2" d="M324.9,330.1c-15.4-15.6-69.3-27-133.5-27s-118.2,11.5-133.5,27c15.4,15.6,69.3,27,133.5,27
			C255.5,357.1,309.5,345.7,324.9,330.1z"/>
	</g>
</g>
<g id="svg-hand_1_">
	<g id="svg-hand">
		<path class="st3" d="M224,639.5c-1-4.2-2.1-8.7-3.2-13.7c-0.4-1.8-0.9-3.7-1.3-5.6c-1,1.5-2.4,3.4-4.4,5.3
			c-3.5,3.4-8.5,6.6-15.1,6.6c-0.4,0-0.9,0-1.4,0c-5.4-0.4-11.2-1.2-17.2-2.4c-0.2,6.7-0.3,15.6,0.4,21.5c0.9,7,3.3,40,3.9,48.1
			c2.3,0,4.6,0,6.9,0c14.9,0,31.9-0.6,45.3-1.8C235.2,687.6,226.9,651.5,224,639.5z"/>
		<path class="st4" d="M225.3,639.2c-1-4-2-8.5-3.1-13.3c-0.6-2.4-1.1-4.8-1.7-7.4l0,0l-0.1-0.3c-2.5-10.8-4.3-19-4.3-19l-0.2-0.9
			l-35.4,20.8v0.4c0,0-0.3,4-0.4,9.2v0.6l0,0c-0.2,6.8-0.3,15.9,0.5,21.9c0.9,6.9,3.3,39.8,3.9,47.9c0.2,0,0.4,0,0.7,0
			c0.2,0,0.4,0,0.7,0c-0.6-8.1-3.1-41.1-3.9-48.1c-0.7-5.9-0.7-14.8-0.4-21.5c0.5,0.1,1.1,0.2,1.6,0.3c0.9,0.2,1.8,0.4,2.7,0.5
			c0.6,0.1,1.1,0.2,1.7,0.3c0.9,0.2,1.9,0.3,2.8,0.4c0.4,0.1,0.9,0.1,1.3,0.2c1,0.1,2,0.3,3,0.4h0.1c1.4,0.1,2.7,0.3,4,0.3
			c0.5,0,0.9,0,1.4,0l0,0c0.8,0,1.6-0.1,2.4-0.1h0.1c0.3,0,0.7-0.1,1-0.2c0.1,0,0.1,0,0.2,0c0.3-0.1,0.6-0.1,0.9-0.2
			c0.1,0,0.1,0,0.2,0c0.3-0.1,0.6-0.2,0.9-0.2h0.1c0.3-0.1,0.6-0.2,0.9-0.3c0,0,0,0,0.1,0c6.5-2.4,10.7-7.6,12.7-10.7
			c0.4,1.9,0.9,3.8,1.3,5.6c1.1,4.9,2.2,9.5,3.2,13.7c2.9,12,11.2,48.1,14,58c0.2,0,0.5,0,0.7-0.1c0.2,0,0.5,0,0.7-0.1
			C236.6,687.5,228.2,651.3,225.3,639.2z"/>
		<path class="st5" d="M191.6,372.2c-0.2-5.1-4-9.1-8.5-8.9l-5,0.2c-4.4,0.2-7.9,4.5-7.6,9.6l0.5,10.2l21.1-1.5L191.6,372.2z"/>
		<path class="st6" d="M221.7,563.2c-2-6.3-6.7-18.1-11.2-24.6s-6.7-25.1-10.5-29.3c-0.6-0.7-1.3-1.2-1.9-1.5l1.8,38.3l4.8-0.1
			c4.5-0.1,8.2,3.3,8.3,7.6l0.1,2.8c0.1,4.3-3.4,8-7.8,8.1l-4.5,0.1v0.9l9.5-0.3c4.9-0.1,9,3.6,9.1,8.3l0.1,3.1
			c0.1,4.8-3.7,8.7-8.6,8.9l-9.1,0.3l0.1,1.1l4.4-0.1c4.3-0.1,7.8,3.3,7.9,7.6l0.1,2.8c0.1,4.3-3.2,8-7.5,8.1l-4.1,0.1v0.9l1.8-0.1
			c3.8-0.1,6.9,2.3,7,5.4l0.1,2c0.1,3.1-2.9,5.7-6.7,5.9h-1.6l-21.2,0.6l-11.8,0.3c-0.8,0-1.6-0.1-2.3-0.3c0,0,5.9,1.8,14.2,3.2
			c3.6,0.6,7.7,1.2,11.9,1.4c3.5,0.2,6.6-0.4,9.3-1.7c8.1-3.6,12.9-12.1,13.9-15.8c1.4-5-0.7-9.4-0.7-9.4s3.1-11.6,4.9-17.2
			S223.8,569.5,221.7,563.2z"/>
		<path class="st4" d="M222.4,563c-2-6.4-6.7-18.2-11.3-24.8c-2.2-3.2-3.8-9.4-5.4-15.4c-1.6-6.1-3.1-11.8-5.1-14
			c-0.7-0.8-1.6-1.4-2.5-1.8v0.7v0.8c0.5,0.3,1,0.6,1.4,1.1c1.8,2,3.3,7.8,4.9,13.5c1.6,6.1,3.3,12.5,5.6,15.8
			c4.4,6.4,9.2,18.4,11.1,24.5c1.9,5.8,1.9,11.5,0,17.3c-1.8,5.6-4.9,17.2-4.9,17.3l-0.1,0.2l0.1,0.2c0,0,1.9,4.3,0.7,8.9
			c-1.3,4.7-9.1,17.9-22.5,17c-9.4-0.6-18.2-2.6-22.8-3.7h-1.1c-0.8,0-1.6-0.1-2.3-0.3c-0.2-0.1-0.4-0.1-0.6-0.2l-0.1,0.7l0.6,0.2
			c0.1,0,12.5,3.8,26.3,4.7c0.5,0,0.9,0,1.4,0c13.4,0,21.2-13.2,22.5-18c1.3-4.5-0.2-8.6-0.6-9.6c0.4-1.6,3.2-11.9,4.9-17
			C224.3,575,224.3,569.1,222.4,563z"/>
		<polygon class="st5" points="198.1,508.6 198.1,507.8 198,507.1 197.3,492.2 176.2,493.6 178.7,546.7 183.6,546.6 184.3,546.5 
			184.9,546.5 199.9,546.1 		"/>
		<path class="st6" d="M175.6,586.6h0.7l17.1-0.5l8.4-0.2l9.1-0.3c4.9-0.1,8.8-4.1,8.6-8.9l-0.1-3.1c-0.1-4.8-4.2-8.5-9.1-8.4
			l-29.6,0.9H180h-0.4h-0.3l-9.5,0.3v-0.9l9.7-0.3h0.1h0.6h0.7l19.9-0.6l4.5-0.1c4.5-0.1,8-3.8,7.8-8.1l-0.1-2.8
			c-0.1-4.3-3.8-7.8-8.3-7.6l-4.8,0.1l-14.9,0.4h-0.7h-0.7l-4.8,0.1L164,547c-4.5,0.1-8,3.8-7.8,8.1l0.1,2.8c0.1,4,3.3,7.3,7.3,7.6
			v1.1c-4,0.9-7,4.5-6.9,8.6l0.1,3.1c0.1,4.2,3.3,8.9,7.4,9.5v0.6c-2.7,1.3-4.5,4.1-4.4,7.4l0.1,2.8c0.1,4.3,3.7,7.8,7.9,7.6h1v1
			c-3.1,0.6-5.5,3-5.4,5.7l0.1,2c0.1,2.3,1.7,4.2,4.1,5c0.2,0.1,0.4,0.1,0.6,0.2c0.7,0.2,1.5,0.3,2.3,0.3h1.1l33.4-1
			c3.8-0.1,6.7-2.7,6.7-5.9l-0.1-2c-0.1-3.1-3.2-5.6-7-5.4l-29.2,0.9v-0.9l31.5-0.9c4.3-0.1,7.6-3.8,7.5-8.1l-0.1-2.8
			c-0.1-4.3-3.7-7.8-7.9-7.6l-30.2,0.9h-0.7h-0.7l-4.1,0.1v-1.1l4.4-0.1L175.6,586.6z"/>
		<path class="st4" d="M170.3,621.4c-4.1,0-7.3-2.7-7.4-6.1l-0.1-2c-0.1-2.6,1.8-5,4.5-6c-4.4-0.2-8-3.7-8.1-8.3l-0.1-2.8
			c-0.1-3.1,1.5-6,4-7.5c-4.1-1.3-6.9-6-7-10l-0.1-3.1c-0.1-4.2,2.7-8,6.8-9.2c-4.1-0.6-7.2-4.1-7.3-8.2l-0.1-2.8
			c-0.1-4.7,3.7-8.7,8.5-8.8l40.7-1.2c4.9-0.2,8.8,3.5,9,8.3l0.1,2.8c0.1,2.3-0.8,4.5-2.4,6.1c-0.9,1-2,1.7-3.2,2.1l2.1-0.1
			c5.3-0.1,9.7,3.9,9.8,9l0.1,3.1c0.1,2.5-0.9,4.8-2.6,6.7c-1.8,1.8-4.1,2.8-6.7,2.9l-2.6,0.1c3.7,0.8,6.5,4.1,6.6,8.1l0.1,2.8
			c0.1,2.3-0.7,4.4-2.3,6.1c-1.4,1.5-3.3,2.5-5.3,2.6c2.8,0.8,4.8,3.1,4.9,5.7l0.1,2c0.1,1.7-0.7,3.3-2.1,4.6
			c-1.4,1.2-3.2,1.9-5.2,2l-34.5,1C170.4,621.4,170.4,621.4,170.3,621.4z M169.5,605.8l0.1,2.2l-0.6,0.1c-2.9,0.5-4.9,2.7-4.8,5
			l0.1,2c0.1,2.8,2.9,4.9,6.3,4.8l34.5-1c1.7,0,3.2-0.6,4.4-1.6c1.1-1,1.7-2.2,1.7-3.5l-0.1-2c-0.1-2.7-2.7-4.8-6.1-4.8h-0.2
			l-29.9,0.9l-0.1-2.2l32.1-0.9c1.9-0.1,3.6-0.9,4.9-2.3c1.3-1.4,2-3.2,1.9-5.2l-0.1-2.8c-0.1-3.9-3.2-7-7-7h-0.2l-36.4,1.1
			l-0.1-2.4L211,585c2.2-0.1,4.2-1,5.7-2.5s2.3-3.6,2.2-5.7l-0.1-3.1c-0.1-4.4-3.8-7.8-8.4-7.7l-41.1,1.2l-0.1-2.2l36.1-1.1
			c2-0.1,3.8-0.9,5.2-2.3c1.4-1.4,2.1-3.2,2-5.1l-0.1-2.8c-0.1-4-3.5-7.1-7.6-7l-40.7,1.2c-4.1,0.1-7.3,3.4-7.2,7.4l0.1,2.8
			c0.1,3.6,3,6.6,6.7,7l0.6,0.1l0.1,2.3l-0.5,0.1c-3.8,0.9-6.4,4.2-6.3,8l0.1,3.1c0.1,3.7,2.9,8.3,6.8,8.9l0.5,0.1v1.6l-0.4,0.2
			c-2.5,1.2-4.1,3.9-4.1,6.7l0.1,2.8c0.1,3.9,3.2,7,7,7L169.5,605.8z"/>
		<polygon class="st7" points="201.9,586.9 180.7,587.6 181.6,606.1 202.7,605.5 		"/>
		<path class="st8" d="M204.7,545.9c4.5-0.1,8.2,3.3,8.3,7.6l0.1,2.8c0.1,4.3-3.4,8-7.8,8.1l-4.5,0.1l-19.9,0.6l-0.2,0.9l29.6-0.9
			c4.9-0.1,9,3.6,9.1,8.4l0.1,3.1c0.1,4.8-3.7,8.7-8.6,8.9l-9.1,0.3l-8.4,0.2l-17.1,0.5l-0.2,1.1l30.2-0.9c4.3-0.1,7.8,3.3,7.9,7.6
			l0.1,2.8c0.1,4.3-3.2,8-7.5,8.1l-31.5,0.9v0.9l29.2-0.9c3.8-0.1,6.9,2.3,7,5.4l0.1,2c0.1,3.1-2.9,5.7-6.7,5.9l-33.4,1
			c4.5,1.2,13.3,3.1,22.8,3.7c13.4,0.9,21.2-12.3,22.5-17c1.3-4.6-0.6-8.9-0.7-8.9L216,598l0.1-0.2c0-0.1,3.2-11.7,4.9-17.3
			c1.9-5.8,1.9-11.5,0-17.3c-1.9-6-6.7-18-11.1-24.5c-2.3-3.4-4-9.7-5.6-15.8c-1.5-5.6-3.1-11.5-4.9-13.5c-0.4-0.5-0.9-0.9-1.4-1.1
			l1.8,37.5L204.7,545.9z"/>
		<polygon class="st4" points="180,566.1 180.7,566.1 180.9,565.2 180.2,565.3 179.6,565.3 179.5,565.3 179.4,566.2 179.7,566.1 		
			"/>
		<polygon class="st8" points="169.9,565.6 169.9,566.4 179.4,566.2 179.5,565.3 		"/>
		<polygon class="st4" points="175.6,586.6 174.9,586.6 174.7,587.7 175.3,587.7 176,587.7 176.3,586.6 		"/>
		<path class="st5" d="M203.8,628v-0.7l0,0l-0.3-6.9l-21.2,0.6l0.1,2.6l0,0l0.3,5.4c0.2,5.1,4,9.1,8.5,8.9l5-0.2
			C200.7,637.4,204.1,633.1,203.8,628z"/>
		<g>
			<polygon class="st9" points="292.2,374.8 192,381.8 170.9,383.3 69.6,390.4 75.6,500.6 176.2,493.6 197.3,492.2 302.4,484.9 			
				"/>
			<text transform="matrix(0.998 -6.375812e-02 6.375812e-02 0.998 110.6798 442.2113)" class="st10 st11">Oops !</text>
			
				<text transform="matrix(0.998 -6.375812e-02 6.375812e-02 0.998 141.4865 477.9106)" style="fill:#3D3A3A; font-family:'MSReferenceSansSerif'; font-size:19.8784px;">404 Error</text>
		</g>
	</g>
</g>
</svg>
