<svg xmlns="http://www.w3.org/2000/svg" width="256" height="256" viewBox="0 0 100 100">
    <!-- <rect
        width="100"
        height="100"
        rx="50"
        fill="#ffffff">
    </rect> -->
    <path
        d="M35.56 77L35.02 77Q33.67 77 32.95 76.37L32.95 76.37Q32.23 75.74 32.00 75.38Q31.78 75.02 31.78 74.48L31.78 74.48Q31.78 74.12 32.41 71.15L32.41 71.15L33.22 68.18Q34.12 64.49 34.84 62.06L34.84 62.06Q35.20 59.81 36.23 57.29Q37.27 54.77 37.45 54.23L37.45 54.23Q38.17 51.62 40.23 46.13L40.23 46.13L42.94 38.84Q46.09 30.29 46.72 28.40L46.72 28.40L48.16 24.44Q48.16 23 49.59 23L49.59 23Q50.86 23 51.71 24.40Q52.57 25.79 52.57 27.59L52.57 27.59Q52.57 28.94 52.03 30.20L52.03 30.20Q50.77 32.90 49.28 37.00Q47.80 41.09 47.34 42.35L47.34 42.35Q44.29 50.99 42.94 53.87L42.94 53.87Q42.94 54.23 42.67 55.13Q42.40 56.03 42.04 56.75L42.04 56.75L41.05 58.73Q41.05 59 40.06 62.51L40.06 62.51Q38.80 66.38 38.53 68.18L38.53 68.18Q38.98 67.37 40.42 65.70Q41.86 64.04 43.12 62.96L43.12 62.96Q48.07 58.73 49.23 57.92L49.23 57.92Q50.32 57.29 51.04 56.75Q51.76 56.21 52.03 56.03L52.03 56.03Q52.03 55.58 53.02 55.58L53.02 55.58Q53.38 55.58 53.42 55.49Q53.47 55.40 53.47 55.04L53.47 55.04Q53.47 54.41 55.54 53.91Q57.61 53.42 59.23 53.42L59.23 53.42Q60.31 53.42 60.94 53.87Q61.57 54.32 62.56 55.85L62.56 55.85Q64.09 58.01 64.09 60.53L64.09 60.53Q64.09 61.97 63.55 63.50L63.55 63.50Q63.55 64.22 63.32 65.70Q63.10 67.19 63.10 68.27L63.10 68.27L62.56 71.15L64.00 71.15Q64.63 71.15 65.21 71.33Q65.80 71.51 65.97 71.60L65.97 71.60Q66.78 72.59 67.42 72.59L67.42 72.59Q68.22 72.59 68.22 73.22L68.22 73.22Q68.22 73.58 67.87 74.12Q67.50 74.66 66.88 75.02L66.88 75.02Q64.53 76.46 62.92 76.46L62.92 76.46Q61.39 76.46 59.77 75.02L59.77 75.02Q57.79 73.04 57.79 70.25L57.79 70.25Q57.79 68.81 58.33 66.83L58.33 66.83L58.60 63.95Q58.78 61.79 58.78 61.25L58.78 61.25Q58.78 59.18 57.79 59.18L57.79 59.18Q56.53 59.18 52.97 61.39Q49.42 63.59 45.64 66.88Q41.86 70.16 39.61 73.49L39.61 73.49Q38.26 75.20 37.31 76.06Q36.37 76.91 35.56 77L35.56 77Z"
        fill="#000000">
    </path>
    <style>
        @media (prefers-color-scheme: dark) {
            <!-- rect { fill: #EEEEEE; } -->
            path { fill: #EEEEEE; }
        }
        @media (prefers-color-scheme: light) {
            <!-- rect { fill: #111111; } -->
            path { fill: #111111; }
        }
    </style>
</svg>