<?xml version="1.0" standalone="no"?>
<!DOCTYPE svg PUBLIC "-//W3C//DTD SVG 20010904//EN"
 "http://www.w3.org/TR/2001/REC-SVG-20010904/DTD/svg10.dtd">
<svg version="1.0" xmlns="http://www.w3.org/2000/svg"
 width="700.000000pt" height="700.000000pt" viewBox="0 0 700.000000 700.000000"
 preserveAspectRatio="xMidYMid meet">
<metadata>
Created by potrace 1.14, written by Peter Selinger 2001-2017
</metadata>
<g transform="translate(0.000000,700.000000) scale(0.100000,-0.100000)"
fill="#000000" stroke="none">
<path d="M3412 5378 c-14 -7 -26 -27 -33 -52 -12 -43 -196 -565 -254 -721
-196 -522 -417 -1132 -465 -1279 -33 -99 -64 -190 -69 -201 -38 -81 -106 -272
-127 -357 -13 -57 -40 -159 -59 -228 -19 -69 -41 -154 -50 -190 -21 -89 -19
-82 -55 -215 -43 -162 -79 -347 -72 -380 7 -39 91 -119 140 -133 96 -29 177
-8 256 66 42 40 149 168 236 283 83 110 282 308 420 419 24 19 69 55 99 80
209 171 553 377 636 381 55 3 64 -1 81 -33 16 -31 21 -169 9 -256 -2 -19 -7
-68 -10 -110 -10 -120 -14 -152 -19 -161 -3 -4 -8 -23 -11 -42 -3 -19 -8 -47
-11 -64 -11 -59 -6 -182 9 -232 48 -161 182 -288 319 -300 69 -7 127 8 225 55
84 41 146 94 160 137 15 48 6 64 -39 72 -27 4 -55 18 -79 40 -48 43 -112 63
-201 63 l-70 0 6 27 c3 16 8 43 11 62 3 19 8 37 10 40 2 4 6 38 9 76 7 75 14
139 21 195 3 19 8 60 11 90 3 30 14 84 23 120 32 120 12 281 -47 390 -39 71
-107 164 -146 198 -56 49 -158 54 -346 17 -117 -23 -172 -51 -185 -92 -8 -28
-14 -33 -41 -33 -23 0 -43 -10 -66 -31 -18 -16 -67 -52 -108 -79 -68 -45 -197
-140 -224 -165 -6 -6 -80 -69 -165 -139 -84 -71 -185 -161 -223 -199 -68 -69
-177 -199 -197 -234 -22 -40 -19 0 10 112 16 65 32 122 35 126 6 10 89 301 99
349 4 19 28 77 54 130 48 99 62 135 81 210 6 25 38 110 70 190 65 161 112 290
289 780 67 184 125 344 130 355 5 11 28 70 52 130 23 61 57 143 76 184 48 106
63 172 59 265 -8 199 -141 343 -264 284z"/>
</g>
</svg>
